<mxfile host="app.diagrams.net" modified="2020-11-29T12:46:14.989Z" agent="5.0 (Windows NT 10.0; Win64; x64) AppleWebKit/537.36 (KHTML, like Gecko) Chrome/86.0.4240.198 Safari/537.36" etag="8fsGhYRKm8QDWjgicvFt" version="13.9.8" type="github" pages="2">
  <diagram id="R2lEEEUBdFMjLlhIrx00" name="PatientDosage">
    <mxGraphModel dx="135" dy="341" grid="1" gridSize="10" guides="1" tooltips="1" connect="1" arrows="1" fold="1" page="1" pageScale="1" pageWidth="850" pageHeight="1100" math="0" shadow="0" extFonts="Permanent Marker^https://fonts.googleapis.com/css?family=Permanent+Marker">
      <root>
        <mxCell id="0" />
        <mxCell id="1" parent="0" />
        <mxCell id="APkJGl1ul3EBngyCiWOz-1" value="DrugIntake_Fact" style="shape=table;startSize=30;container=1;collapsible=1;childLayout=tableLayout;fixedRows=1;rowLines=0;fontStyle=1;align=center;resizeLast=1;" parent="1" vertex="1">
          <mxGeometry x="310" y="180" width="180" height="270" as="geometry" />
        </mxCell>
        <mxCell id="APkJGl1ul3EBngyCiWOz-2" value="" style="shape=partialRectangle;collapsible=0;dropTarget=0;pointerEvents=0;fillColor=none;top=0;left=0;bottom=0;right=0;points=[[0,0.5],[1,0.5]];portConstraint=eastwest;" parent="APkJGl1ul3EBngyCiWOz-1" vertex="1">
          <mxGeometry y="30" width="180" height="30" as="geometry" />
        </mxCell>
        <mxCell id="APkJGl1ul3EBngyCiWOz-3" value="PK,FK1" style="shape=partialRectangle;connectable=0;fillColor=none;top=0;left=0;bottom=0;right=0;fontStyle=1;overflow=hidden;" parent="APkJGl1ul3EBngyCiWOz-2" vertex="1">
          <mxGeometry width="50" height="30" as="geometry" />
        </mxCell>
        <mxCell id="APkJGl1ul3EBngyCiWOz-4" value="DateKey" style="shape=partialRectangle;connectable=0;fillColor=none;top=0;left=0;bottom=0;right=0;align=left;spacingLeft=6;fontStyle=5;overflow=hidden;" parent="APkJGl1ul3EBngyCiWOz-2" vertex="1">
          <mxGeometry x="50" width="130" height="30" as="geometry" />
        </mxCell>
        <mxCell id="APkJGl1ul3EBngyCiWOz-5" value="" style="shape=partialRectangle;collapsible=0;dropTarget=0;pointerEvents=0;fillColor=none;top=0;left=0;bottom=1;right=0;points=[[0,0.5],[1,0.5]];portConstraint=eastwest;" parent="APkJGl1ul3EBngyCiWOz-1" vertex="1">
          <mxGeometry y="60" width="180" height="20" as="geometry" />
        </mxCell>
        <mxCell id="APkJGl1ul3EBngyCiWOz-6" value="PK,FK2" style="shape=partialRectangle;connectable=0;fillColor=none;top=0;left=0;bottom=0;right=0;fontStyle=1;overflow=hidden;" parent="APkJGl1ul3EBngyCiWOz-5" vertex="1">
          <mxGeometry width="50" height="20" as="geometry" />
        </mxCell>
        <mxCell id="APkJGl1ul3EBngyCiWOz-7" value="PatientKey" style="shape=partialRectangle;connectable=0;fillColor=none;top=0;left=0;bottom=0;right=0;align=left;spacingLeft=6;fontStyle=5;overflow=hidden;" parent="APkJGl1ul3EBngyCiWOz-5" vertex="1">
          <mxGeometry x="50" width="130" height="20" as="geometry" />
        </mxCell>
        <mxCell id="APkJGl1ul3EBngyCiWOz-14" value="" style="shape=partialRectangle;collapsible=0;dropTarget=0;pointerEvents=0;fillColor=none;top=0;left=0;bottom=0;right=0;points=[[0,0.5],[1,0.5]];portConstraint=eastwest;" parent="APkJGl1ul3EBngyCiWOz-1" vertex="1">
          <mxGeometry y="80" width="180" height="30" as="geometry" />
        </mxCell>
        <mxCell id="APkJGl1ul3EBngyCiWOz-15" value="PK,FK3" style="shape=partialRectangle;connectable=0;fillColor=none;top=0;left=0;bottom=0;right=0;fontStyle=1;overflow=hidden;" parent="APkJGl1ul3EBngyCiWOz-14" vertex="1">
          <mxGeometry width="50" height="30" as="geometry" />
        </mxCell>
        <mxCell id="APkJGl1ul3EBngyCiWOz-16" value="NurseKey" style="shape=partialRectangle;connectable=0;fillColor=none;top=0;left=0;bottom=0;right=0;align=left;spacingLeft=6;fontStyle=5;overflow=hidden;" parent="APkJGl1ul3EBngyCiWOz-14" vertex="1">
          <mxGeometry x="50" width="130" height="30" as="geometry" />
        </mxCell>
        <mxCell id="APkJGl1ul3EBngyCiWOz-21" value="" style="shape=partialRectangle;collapsible=0;dropTarget=0;pointerEvents=0;fillColor=none;top=0;left=0;bottom=0;right=0;points=[[0,0.5],[1,0.5]];portConstraint=eastwest;" parent="APkJGl1ul3EBngyCiWOz-1" vertex="1">
          <mxGeometry y="110" width="180" height="30" as="geometry" />
        </mxCell>
        <mxCell id="APkJGl1ul3EBngyCiWOz-22" value="PK,FK4" style="shape=partialRectangle;connectable=0;fillColor=none;top=0;left=0;bottom=0;right=0;fontStyle=1;overflow=hidden;" parent="APkJGl1ul3EBngyCiWOz-21" vertex="1">
          <mxGeometry width="50" height="30" as="geometry" />
        </mxCell>
        <mxCell id="APkJGl1ul3EBngyCiWOz-23" value="DrugKey" style="shape=partialRectangle;connectable=0;fillColor=none;top=0;left=0;bottom=0;right=0;align=left;spacingLeft=6;fontStyle=5;overflow=hidden;" parent="APkJGl1ul3EBngyCiWOz-21" vertex="1">
          <mxGeometry x="50" width="130" height="30" as="geometry" />
        </mxCell>
        <mxCell id="APkJGl1ul3EBngyCiWOz-24" value="" style="shape=partialRectangle;collapsible=0;dropTarget=0;pointerEvents=0;fillColor=none;top=0;left=0;bottom=0;right=0;points=[[0,0.5],[1,0.5]];portConstraint=eastwest;" parent="APkJGl1ul3EBngyCiWOz-1" vertex="1">
          <mxGeometry y="140" width="180" height="30" as="geometry" />
        </mxCell>
        <mxCell id="APkJGl1ul3EBngyCiWOz-25" value="PK,FK5" style="shape=partialRectangle;connectable=0;fillColor=none;top=0;left=0;bottom=0;right=0;fontStyle=1;overflow=hidden;" parent="APkJGl1ul3EBngyCiWOz-24" vertex="1">
          <mxGeometry width="50" height="30" as="geometry" />
        </mxCell>
        <mxCell id="APkJGl1ul3EBngyCiWOz-26" value="IngKey" style="shape=partialRectangle;connectable=0;fillColor=none;top=0;left=0;bottom=0;right=0;align=left;spacingLeft=6;fontStyle=5;overflow=hidden;" parent="APkJGl1ul3EBngyCiWOz-24" vertex="1">
          <mxGeometry x="50" width="130" height="30" as="geometry" />
        </mxCell>
        <mxCell id="APkJGl1ul3EBngyCiWOz-31" value="" style="shape=partialRectangle;collapsible=0;dropTarget=0;pointerEvents=0;fillColor=none;top=0;left=0;bottom=0;right=0;points=[[0,0.5],[1,0.5]];portConstraint=eastwest;" parent="APkJGl1ul3EBngyCiWOz-1" vertex="1">
          <mxGeometry y="170" width="180" height="30" as="geometry" />
        </mxCell>
        <mxCell id="APkJGl1ul3EBngyCiWOz-32" value="" style="shape=partialRectangle;connectable=0;fillColor=none;top=0;left=0;bottom=0;right=0;fontStyle=1;overflow=hidden;" parent="APkJGl1ul3EBngyCiWOz-31" vertex="1">
          <mxGeometry width="50" height="30" as="geometry" />
        </mxCell>
        <mxCell id="APkJGl1ul3EBngyCiWOz-33" value="DieNumber" style="shape=partialRectangle;connectable=0;fillColor=none;top=0;left=0;bottom=0;right=0;align=left;spacingLeft=6;fontStyle=4;overflow=hidden;" parent="APkJGl1ul3EBngyCiWOz-31" vertex="1">
          <mxGeometry x="50" width="130" height="30" as="geometry" />
        </mxCell>
        <mxCell id="APkJGl1ul3EBngyCiWOz-62" value="" style="shape=partialRectangle;collapsible=0;dropTarget=0;pointerEvents=0;fillColor=none;top=0;left=0;bottom=0;right=0;points=[[0,0.5],[1,0.5]];portConstraint=eastwest;" parent="APkJGl1ul3EBngyCiWOz-1" vertex="1">
          <mxGeometry y="200" width="180" height="30" as="geometry" />
        </mxCell>
        <mxCell id="APkJGl1ul3EBngyCiWOz-63" value="" style="shape=partialRectangle;connectable=0;fillColor=none;top=0;left=0;bottom=0;right=0;editable=1;overflow=hidden;" parent="APkJGl1ul3EBngyCiWOz-62" vertex="1">
          <mxGeometry width="50" height="30" as="geometry" />
        </mxCell>
        <mxCell id="APkJGl1ul3EBngyCiWOz-64" value="DieTime" style="shape=partialRectangle;connectable=0;fillColor=none;top=0;left=0;bottom=0;right=0;align=left;spacingLeft=6;overflow=hidden;" parent="APkJGl1ul3EBngyCiWOz-62" vertex="1">
          <mxGeometry x="50" width="130" height="30" as="geometry" />
        </mxCell>
        <mxCell id="APkJGl1ul3EBngyCiWOz-37" value="" style="shape=partialRectangle;collapsible=0;dropTarget=0;pointerEvents=0;fillColor=none;top=0;left=0;bottom=0;right=0;points=[[0,0.5],[1,0.5]];portConstraint=eastwest;" parent="APkJGl1ul3EBngyCiWOz-1" vertex="1">
          <mxGeometry y="230" width="180" height="30" as="geometry" />
        </mxCell>
        <mxCell id="APkJGl1ul3EBngyCiWOz-38" value="" style="shape=partialRectangle;connectable=0;fillColor=none;top=0;left=0;bottom=0;right=0;editable=1;overflow=hidden;" parent="APkJGl1ul3EBngyCiWOz-37" vertex="1">
          <mxGeometry width="50" height="30" as="geometry" />
        </mxCell>
        <mxCell id="APkJGl1ul3EBngyCiWOz-39" value="Amount(dosage*Quantity)" style="shape=partialRectangle;connectable=0;fillColor=none;top=0;left=0;bottom=0;right=0;align=left;spacingLeft=6;overflow=hidden;" parent="APkJGl1ul3EBngyCiWOz-37" vertex="1">
          <mxGeometry x="50" width="130" height="30" as="geometry" />
        </mxCell>
        <mxCell id="APkJGl1ul3EBngyCiWOz-46" value="Date_Dimension" style="shape=table;startSize=30;container=1;collapsible=1;childLayout=tableLayout;fixedRows=1;rowLines=0;fontStyle=1;align=center;resizeLast=1;" parent="1" vertex="1">
          <mxGeometry x="50" y="20" width="180" height="190" as="geometry" />
        </mxCell>
        <mxCell id="APkJGl1ul3EBngyCiWOz-47" value="" style="shape=partialRectangle;collapsible=0;dropTarget=0;pointerEvents=0;fillColor=none;top=0;left=0;bottom=1;right=0;points=[[0,0.5],[1,0.5]];portConstraint=eastwest;" parent="APkJGl1ul3EBngyCiWOz-46" vertex="1">
          <mxGeometry y="30" width="180" height="30" as="geometry" />
        </mxCell>
        <mxCell id="APkJGl1ul3EBngyCiWOz-48" value="PK" style="shape=partialRectangle;connectable=0;fillColor=none;top=0;left=0;bottom=0;right=0;fontStyle=1;overflow=hidden;" parent="APkJGl1ul3EBngyCiWOz-47" vertex="1">
          <mxGeometry width="30" height="30" as="geometry" />
        </mxCell>
        <mxCell id="APkJGl1ul3EBngyCiWOz-49" value="DateKey" style="shape=partialRectangle;connectable=0;fillColor=none;top=0;left=0;bottom=0;right=0;align=left;spacingLeft=6;fontStyle=5;overflow=hidden;" parent="APkJGl1ul3EBngyCiWOz-47" vertex="1">
          <mxGeometry x="30" width="150" height="30" as="geometry" />
        </mxCell>
        <mxCell id="APkJGl1ul3EBngyCiWOz-50" value="" style="shape=partialRectangle;collapsible=0;dropTarget=0;pointerEvents=0;fillColor=none;top=0;left=0;bottom=0;right=0;points=[[0,0.5],[1,0.5]];portConstraint=eastwest;" parent="APkJGl1ul3EBngyCiWOz-46" vertex="1">
          <mxGeometry y="60" width="180" height="30" as="geometry" />
        </mxCell>
        <mxCell id="APkJGl1ul3EBngyCiWOz-51" value="" style="shape=partialRectangle;connectable=0;fillColor=none;top=0;left=0;bottom=0;right=0;editable=1;overflow=hidden;" parent="APkJGl1ul3EBngyCiWOz-50" vertex="1">
          <mxGeometry width="30" height="30" as="geometry" />
        </mxCell>
        <mxCell id="APkJGl1ul3EBngyCiWOz-52" value="FullDate" style="shape=partialRectangle;connectable=0;fillColor=none;top=0;left=0;bottom=0;right=0;align=left;spacingLeft=6;overflow=hidden;" parent="APkJGl1ul3EBngyCiWOz-50" vertex="1">
          <mxGeometry x="30" width="150" height="30" as="geometry" />
        </mxCell>
        <mxCell id="APkJGl1ul3EBngyCiWOz-53" value="" style="shape=partialRectangle;collapsible=0;dropTarget=0;pointerEvents=0;fillColor=none;top=0;left=0;bottom=0;right=0;points=[[0,0.5],[1,0.5]];portConstraint=eastwest;" parent="APkJGl1ul3EBngyCiWOz-46" vertex="1">
          <mxGeometry y="90" width="180" height="30" as="geometry" />
        </mxCell>
        <mxCell id="APkJGl1ul3EBngyCiWOz-54" value="" style="shape=partialRectangle;connectable=0;fillColor=none;top=0;left=0;bottom=0;right=0;editable=1;overflow=hidden;" parent="APkJGl1ul3EBngyCiWOz-53" vertex="1">
          <mxGeometry width="30" height="30" as="geometry" />
        </mxCell>
        <mxCell id="APkJGl1ul3EBngyCiWOz-55" value="DayofWeek" style="shape=partialRectangle;connectable=0;fillColor=none;top=0;left=0;bottom=0;right=0;align=left;spacingLeft=6;overflow=hidden;" parent="APkJGl1ul3EBngyCiWOz-53" vertex="1">
          <mxGeometry x="30" width="150" height="30" as="geometry" />
        </mxCell>
        <mxCell id="APkJGl1ul3EBngyCiWOz-56" value="" style="shape=partialRectangle;collapsible=0;dropTarget=0;pointerEvents=0;fillColor=none;top=0;left=0;bottom=0;right=0;points=[[0,0.5],[1,0.5]];portConstraint=eastwest;" parent="APkJGl1ul3EBngyCiWOz-46" vertex="1">
          <mxGeometry y="120" width="180" height="30" as="geometry" />
        </mxCell>
        <mxCell id="APkJGl1ul3EBngyCiWOz-57" value="" style="shape=partialRectangle;connectable=0;fillColor=none;top=0;left=0;bottom=0;right=0;editable=1;overflow=hidden;" parent="APkJGl1ul3EBngyCiWOz-56" vertex="1">
          <mxGeometry width="30" height="30" as="geometry" />
        </mxCell>
        <mxCell id="APkJGl1ul3EBngyCiWOz-58" value="Month" style="shape=partialRectangle;connectable=0;fillColor=none;top=0;left=0;bottom=0;right=0;align=left;spacingLeft=6;overflow=hidden;" parent="APkJGl1ul3EBngyCiWOz-56" vertex="1">
          <mxGeometry x="30" width="150" height="30" as="geometry" />
        </mxCell>
        <mxCell id="APkJGl1ul3EBngyCiWOz-59" value="" style="shape=partialRectangle;collapsible=0;dropTarget=0;pointerEvents=0;fillColor=none;top=0;left=0;bottom=0;right=0;points=[[0,0.5],[1,0.5]];portConstraint=eastwest;" parent="APkJGl1ul3EBngyCiWOz-46" vertex="1">
          <mxGeometry y="150" width="180" height="30" as="geometry" />
        </mxCell>
        <mxCell id="APkJGl1ul3EBngyCiWOz-60" value="" style="shape=partialRectangle;connectable=0;fillColor=none;top=0;left=0;bottom=0;right=0;editable=1;overflow=hidden;" parent="APkJGl1ul3EBngyCiWOz-59" vertex="1">
          <mxGeometry width="30" height="30" as="geometry" />
        </mxCell>
        <mxCell id="APkJGl1ul3EBngyCiWOz-61" value="Year" style="shape=partialRectangle;connectable=0;fillColor=none;top=0;left=0;bottom=0;right=0;align=left;spacingLeft=6;overflow=hidden;" parent="APkJGl1ul3EBngyCiWOz-59" vertex="1">
          <mxGeometry x="30" width="150" height="30" as="geometry" />
        </mxCell>
        <mxCell id="APkJGl1ul3EBngyCiWOz-65" value="Patient_Dimension" style="shape=table;startSize=30;container=1;collapsible=1;childLayout=tableLayout;fixedRows=1;rowLines=0;fontStyle=1;align=center;resizeLast=1;" parent="1" vertex="1">
          <mxGeometry x="560" y="10" width="180" height="220" as="geometry" />
        </mxCell>
        <mxCell id="APkJGl1ul3EBngyCiWOz-66" value="" style="shape=partialRectangle;collapsible=0;dropTarget=0;pointerEvents=0;fillColor=none;top=0;left=0;bottom=1;right=0;points=[[0,0.5],[1,0.5]];portConstraint=eastwest;" parent="APkJGl1ul3EBngyCiWOz-65" vertex="1">
          <mxGeometry y="30" width="180" height="30" as="geometry" />
        </mxCell>
        <mxCell id="APkJGl1ul3EBngyCiWOz-67" value="PK" style="shape=partialRectangle;connectable=0;fillColor=none;top=0;left=0;bottom=0;right=0;fontStyle=1;overflow=hidden;" parent="APkJGl1ul3EBngyCiWOz-66" vertex="1">
          <mxGeometry width="30" height="30" as="geometry" />
        </mxCell>
        <mxCell id="APkJGl1ul3EBngyCiWOz-68" value="PatientKey" style="shape=partialRectangle;connectable=0;fillColor=none;top=0;left=0;bottom=0;right=0;align=left;spacingLeft=6;fontStyle=5;overflow=hidden;" parent="APkJGl1ul3EBngyCiWOz-66" vertex="1">
          <mxGeometry x="30" width="150" height="30" as="geometry" />
        </mxCell>
        <mxCell id="kOgtcSolTYMGVDwAOkYL-1" value="" style="shape=partialRectangle;collapsible=0;dropTarget=0;pointerEvents=0;fillColor=none;top=0;left=0;bottom=0;right=0;points=[[0,0.5],[1,0.5]];portConstraint=eastwest;" parent="APkJGl1ul3EBngyCiWOz-65" vertex="1">
          <mxGeometry y="60" width="180" height="30" as="geometry" />
        </mxCell>
        <mxCell id="kOgtcSolTYMGVDwAOkYL-2" value="" style="shape=partialRectangle;connectable=0;fillColor=none;top=0;left=0;bottom=0;right=0;editable=1;overflow=hidden;" parent="kOgtcSolTYMGVDwAOkYL-1" vertex="1">
          <mxGeometry width="30" height="30" as="geometry" />
        </mxCell>
        <mxCell id="kOgtcSolTYMGVDwAOkYL-3" value="PatientId" style="shape=partialRectangle;connectable=0;fillColor=none;top=0;left=0;bottom=0;right=0;align=left;spacingLeft=6;overflow=hidden;" parent="kOgtcSolTYMGVDwAOkYL-1" vertex="1">
          <mxGeometry x="30" width="150" height="30" as="geometry" />
        </mxCell>
        <mxCell id="APkJGl1ul3EBngyCiWOz-69" value="" style="shape=partialRectangle;collapsible=0;dropTarget=0;pointerEvents=0;fillColor=none;top=0;left=0;bottom=0;right=0;points=[[0,0.5],[1,0.5]];portConstraint=eastwest;" parent="APkJGl1ul3EBngyCiWOz-65" vertex="1">
          <mxGeometry y="90" width="180" height="30" as="geometry" />
        </mxCell>
        <mxCell id="APkJGl1ul3EBngyCiWOz-70" value="" style="shape=partialRectangle;connectable=0;fillColor=none;top=0;left=0;bottom=0;right=0;editable=1;overflow=hidden;" parent="APkJGl1ul3EBngyCiWOz-69" vertex="1">
          <mxGeometry width="30" height="30" as="geometry" />
        </mxCell>
        <mxCell id="APkJGl1ul3EBngyCiWOz-71" value="PatientFName" style="shape=partialRectangle;connectable=0;fillColor=none;top=0;left=0;bottom=0;right=0;align=left;spacingLeft=6;overflow=hidden;" parent="APkJGl1ul3EBngyCiWOz-69" vertex="1">
          <mxGeometry x="30" width="150" height="30" as="geometry" />
        </mxCell>
        <mxCell id="APkJGl1ul3EBngyCiWOz-72" value="" style="shape=partialRectangle;collapsible=0;dropTarget=0;pointerEvents=0;fillColor=none;top=0;left=0;bottom=0;right=0;points=[[0,0.5],[1,0.5]];portConstraint=eastwest;" parent="APkJGl1ul3EBngyCiWOz-65" vertex="1">
          <mxGeometry y="120" width="180" height="30" as="geometry" />
        </mxCell>
        <mxCell id="APkJGl1ul3EBngyCiWOz-73" value="" style="shape=partialRectangle;connectable=0;fillColor=none;top=0;left=0;bottom=0;right=0;editable=1;overflow=hidden;" parent="APkJGl1ul3EBngyCiWOz-72" vertex="1">
          <mxGeometry width="30" height="30" as="geometry" />
        </mxCell>
        <mxCell id="APkJGl1ul3EBngyCiWOz-74" value="PatientLName" style="shape=partialRectangle;connectable=0;fillColor=none;top=0;left=0;bottom=0;right=0;align=left;spacingLeft=6;overflow=hidden;" parent="APkJGl1ul3EBngyCiWOz-72" vertex="1">
          <mxGeometry x="30" width="150" height="30" as="geometry" />
        </mxCell>
        <mxCell id="APkJGl1ul3EBngyCiWOz-75" value="" style="shape=partialRectangle;collapsible=0;dropTarget=0;pointerEvents=0;fillColor=none;top=0;left=0;bottom=0;right=0;points=[[0,0.5],[1,0.5]];portConstraint=eastwest;" parent="APkJGl1ul3EBngyCiWOz-65" vertex="1">
          <mxGeometry y="150" width="180" height="30" as="geometry" />
        </mxCell>
        <mxCell id="APkJGl1ul3EBngyCiWOz-76" value="" style="shape=partialRectangle;connectable=0;fillColor=none;top=0;left=0;bottom=0;right=0;editable=1;overflow=hidden;" parent="APkJGl1ul3EBngyCiWOz-75" vertex="1">
          <mxGeometry width="30" height="30" as="geometry" />
        </mxCell>
        <mxCell id="APkJGl1ul3EBngyCiWOz-77" value="PatientGender" style="shape=partialRectangle;connectable=0;fillColor=none;top=0;left=0;bottom=0;right=0;align=left;spacingLeft=6;overflow=hidden;" parent="APkJGl1ul3EBngyCiWOz-75" vertex="1">
          <mxGeometry x="30" width="150" height="30" as="geometry" />
        </mxCell>
        <mxCell id="APkJGl1ul3EBngyCiWOz-78" value="" style="shape=partialRectangle;collapsible=0;dropTarget=0;pointerEvents=0;fillColor=none;top=0;left=0;bottom=0;right=0;points=[[0,0.5],[1,0.5]];portConstraint=eastwest;" parent="APkJGl1ul3EBngyCiWOz-65" vertex="1">
          <mxGeometry y="180" width="180" height="30" as="geometry" />
        </mxCell>
        <mxCell id="APkJGl1ul3EBngyCiWOz-79" value="" style="shape=partialRectangle;connectable=0;fillColor=none;top=0;left=0;bottom=0;right=0;editable=1;overflow=hidden;" parent="APkJGl1ul3EBngyCiWOz-78" vertex="1">
          <mxGeometry width="30" height="30" as="geometry" />
        </mxCell>
        <mxCell id="APkJGl1ul3EBngyCiWOz-80" value="PatientBirthDate" style="shape=partialRectangle;connectable=0;fillColor=none;top=0;left=0;bottom=0;right=0;align=left;spacingLeft=6;overflow=hidden;" parent="APkJGl1ul3EBngyCiWOz-78" vertex="1">
          <mxGeometry x="30" width="150" height="30" as="geometry" />
        </mxCell>
        <mxCell id="APkJGl1ul3EBngyCiWOz-97" value="Drug_Dimension" style="shape=table;startSize=40;container=1;collapsible=1;childLayout=tableLayout;fixedRows=1;rowLines=0;fontStyle=1;align=center;resizeLast=1;" parent="1" vertex="1">
          <mxGeometry x="560" y="490" width="180" height="150" as="geometry" />
        </mxCell>
        <mxCell id="APkJGl1ul3EBngyCiWOz-98" value="" style="shape=partialRectangle;collapsible=0;dropTarget=0;pointerEvents=0;fillColor=none;top=0;left=0;bottom=1;right=0;points=[[0,0.5],[1,0.5]];portConstraint=eastwest;" parent="APkJGl1ul3EBngyCiWOz-97" vertex="1">
          <mxGeometry y="40" width="180" height="20" as="geometry" />
        </mxCell>
        <mxCell id="APkJGl1ul3EBngyCiWOz-99" value="PK" style="shape=partialRectangle;connectable=0;fillColor=none;top=0;left=0;bottom=0;right=0;fontStyle=1;overflow=hidden;" parent="APkJGl1ul3EBngyCiWOz-98" vertex="1">
          <mxGeometry width="30" height="20" as="geometry" />
        </mxCell>
        <mxCell id="APkJGl1ul3EBngyCiWOz-100" value="DrugKey" style="shape=partialRectangle;connectable=0;fillColor=none;top=0;left=0;bottom=0;right=0;align=left;spacingLeft=6;fontStyle=5;overflow=hidden;" parent="APkJGl1ul3EBngyCiWOz-98" vertex="1">
          <mxGeometry x="30" width="150" height="20" as="geometry" />
        </mxCell>
        <mxCell id="UIICKeLBpr-dkJn-d2Y9-2" value="" style="shape=partialRectangle;collapsible=0;dropTarget=0;pointerEvents=0;fillColor=none;top=0;left=0;bottom=0;right=0;points=[[0,0.5],[1,0.5]];portConstraint=eastwest;" parent="APkJGl1ul3EBngyCiWOz-97" vertex="1">
          <mxGeometry y="60" width="180" height="30" as="geometry" />
        </mxCell>
        <mxCell id="UIICKeLBpr-dkJn-d2Y9-3" value="" style="shape=partialRectangle;connectable=0;fillColor=none;top=0;left=0;bottom=0;right=0;fontStyle=0;overflow=hidden;" parent="UIICKeLBpr-dkJn-d2Y9-2" vertex="1">
          <mxGeometry width="30" height="30" as="geometry" />
        </mxCell>
        <mxCell id="UIICKeLBpr-dkJn-d2Y9-4" value="DrugId" style="shape=partialRectangle;connectable=0;fillColor=none;top=0;left=0;bottom=0;right=0;align=left;spacingLeft=6;fontStyle=0;overflow=hidden;" parent="UIICKeLBpr-dkJn-d2Y9-2" vertex="1">
          <mxGeometry x="30" width="150" height="30" as="geometry" />
        </mxCell>
        <mxCell id="APkJGl1ul3EBngyCiWOz-101" value="" style="shape=partialRectangle;collapsible=0;dropTarget=0;pointerEvents=0;fillColor=none;top=0;left=0;bottom=0;right=0;points=[[0,0.5],[1,0.5]];portConstraint=eastwest;" parent="APkJGl1ul3EBngyCiWOz-97" vertex="1">
          <mxGeometry y="90" width="180" height="30" as="geometry" />
        </mxCell>
        <mxCell id="APkJGl1ul3EBngyCiWOz-102" value="" style="shape=partialRectangle;connectable=0;fillColor=none;top=0;left=0;bottom=0;right=0;editable=1;overflow=hidden;" parent="APkJGl1ul3EBngyCiWOz-101" vertex="1">
          <mxGeometry width="30" height="30" as="geometry" />
        </mxCell>
        <mxCell id="APkJGl1ul3EBngyCiWOz-103" value="DrugName" style="shape=partialRectangle;connectable=0;fillColor=none;top=0;left=0;bottom=0;right=0;align=left;spacingLeft=6;overflow=hidden;" parent="APkJGl1ul3EBngyCiWOz-101" vertex="1">
          <mxGeometry x="30" width="150" height="30" as="geometry" />
        </mxCell>
        <mxCell id="APkJGl1ul3EBngyCiWOz-104" value="" style="shape=partialRectangle;collapsible=0;dropTarget=0;pointerEvents=0;fillColor=none;top=0;left=0;bottom=0;right=0;points=[[0,0.5],[1,0.5]];portConstraint=eastwest;" parent="APkJGl1ul3EBngyCiWOz-97" vertex="1">
          <mxGeometry y="120" width="180" height="30" as="geometry" />
        </mxCell>
        <mxCell id="APkJGl1ul3EBngyCiWOz-105" value="" style="shape=partialRectangle;connectable=0;fillColor=none;top=0;left=0;bottom=0;right=0;editable=1;overflow=hidden;" parent="APkJGl1ul3EBngyCiWOz-104" vertex="1">
          <mxGeometry width="30" height="30" as="geometry" />
        </mxCell>
        <mxCell id="APkJGl1ul3EBngyCiWOz-106" value="DrugCoatingType" style="shape=partialRectangle;connectable=0;fillColor=none;top=0;left=0;bottom=0;right=0;align=left;spacingLeft=6;overflow=hidden;" parent="APkJGl1ul3EBngyCiWOz-104" vertex="1">
          <mxGeometry x="30" width="150" height="30" as="geometry" />
        </mxCell>
        <mxCell id="APkJGl1ul3EBngyCiWOz-127" value="" style="edgeStyle=elbowEdgeStyle;elbow=horizontal;endArrow=classic;html=1;entryX=0;entryY=0.5;entryDx=0;entryDy=0;exitX=1;exitY=0.5;exitDx=0;exitDy=0;" parent="1" source="APkJGl1ul3EBngyCiWOz-5" target="APkJGl1ul3EBngyCiWOz-66" edge="1">
          <mxGeometry width="50" height="50" relative="1" as="geometry">
            <mxPoint x="520" y="170" as="sourcePoint" />
            <mxPoint x="570" y="120" as="targetPoint" />
          </mxGeometry>
        </mxCell>
        <mxCell id="APkJGl1ul3EBngyCiWOz-128" value="" style="edgeStyle=elbowEdgeStyle;elbow=horizontal;endArrow=classic;html=1;entryX=1;entryY=0.5;entryDx=0;entryDy=0;exitX=0;exitY=0.5;exitDx=0;exitDy=0;" parent="1" source="APkJGl1ul3EBngyCiWOz-2" target="APkJGl1ul3EBngyCiWOz-47" edge="1">
          <mxGeometry width="50" height="50" relative="1" as="geometry">
            <mxPoint x="230" y="260" as="sourcePoint" />
            <mxPoint x="300" y="65" as="targetPoint" />
          </mxGeometry>
        </mxCell>
        <mxCell id="APkJGl1ul3EBngyCiWOz-131" value="" style="edgeStyle=segmentEdgeStyle;endArrow=none;html=1;entryX=0;entryY=0.5;entryDx=0;entryDy=0;endFill=0;startArrow=classic;startFill=1;" parent="1" target="APkJGl1ul3EBngyCiWOz-24" edge="1">
          <mxGeometry width="50" height="50" relative="1" as="geometry">
            <mxPoint x="120" y="450" as="sourcePoint" />
            <mxPoint x="310" y="350" as="targetPoint" />
            <Array as="points">
              <mxPoint x="120" y="560" />
              <mxPoint x="270" y="560" />
              <mxPoint x="270" y="335" />
              <mxPoint x="310" y="335" />
            </Array>
          </mxGeometry>
        </mxCell>
        <mxCell id="APkJGl1ul3EBngyCiWOz-132" value="" style="edgeStyle=segmentEdgeStyle;endArrow=none;html=1;entryX=0.989;entryY=-0.3;entryDx=0;entryDy=0;endFill=0;startArrow=classic;startFill=1;entryPerimeter=0;exitX=0.25;exitY=1;exitDx=0;exitDy=0;" parent="1" target="APkJGl1ul3EBngyCiWOz-21" edge="1">
          <mxGeometry width="50" height="50" relative="1" as="geometry">
            <mxPoint x="625" y="400" as="sourcePoint" />
            <mxPoint x="320" y="345" as="targetPoint" />
            <Array as="points">
              <mxPoint x="625" y="470" />
              <mxPoint x="520" y="470" />
              <mxPoint x="520" y="290" />
              <mxPoint x="488" y="290" />
            </Array>
          </mxGeometry>
        </mxCell>
        <mxCell id="APkJGl1ul3EBngyCiWOz-134" value="" style="edgeStyle=segmentEdgeStyle;endArrow=none;html=1;entryX=1;entryY=0.5;entryDx=0;entryDy=0;endFill=0;startArrow=classic;startFill=1;" parent="1" target="APkJGl1ul3EBngyCiWOz-21" edge="1">
          <mxGeometry width="50" height="50" relative="1" as="geometry">
            <mxPoint x="640" y="640" as="sourcePoint" />
            <mxPoint x="330" y="355" as="targetPoint" />
            <Array as="points">
              <mxPoint x="640" y="720" />
              <mxPoint x="510" y="720" />
              <mxPoint x="510" y="305" />
              <mxPoint x="490" y="305" />
            </Array>
          </mxGeometry>
        </mxCell>
        <mxCell id="APkJGl1ul3EBngyCiWOz-135" value="Exercise 2" style="text;html=1;align=center;verticalAlign=middle;resizable=0;points=[];autosize=1;" parent="1" vertex="1">
          <mxGeometry x="325" y="40" width="70" height="20" as="geometry" />
        </mxCell>
        <mxCell id="UIICKeLBpr-dkJn-d2Y9-12" value="Nurse_Dimension" style="shape=table;startSize=30;container=1;collapsible=1;childLayout=tableLayout;fixedRows=1;rowLines=0;fontStyle=1;align=center;resizeLast=1;" parent="1" vertex="1">
          <mxGeometry x="560" y="270" width="180" height="130" as="geometry" />
        </mxCell>
        <mxCell id="UIICKeLBpr-dkJn-d2Y9-13" value="" style="shape=partialRectangle;collapsible=0;dropTarget=0;pointerEvents=0;fillColor=none;top=0;left=0;bottom=1;right=0;points=[[0,0.5],[1,0.5]];portConstraint=eastwest;" parent="UIICKeLBpr-dkJn-d2Y9-12" vertex="1">
          <mxGeometry y="30" width="180" height="30" as="geometry" />
        </mxCell>
        <mxCell id="UIICKeLBpr-dkJn-d2Y9-14" value="PK" style="shape=partialRectangle;connectable=0;fillColor=none;top=0;left=0;bottom=0;right=0;fontStyle=1;overflow=hidden;" parent="UIICKeLBpr-dkJn-d2Y9-13" vertex="1">
          <mxGeometry width="30" height="30" as="geometry" />
        </mxCell>
        <mxCell id="UIICKeLBpr-dkJn-d2Y9-15" value="NurseKey" style="shape=partialRectangle;connectable=0;fillColor=none;top=0;left=0;bottom=0;right=0;align=left;spacingLeft=6;fontStyle=5;overflow=hidden;" parent="UIICKeLBpr-dkJn-d2Y9-13" vertex="1">
          <mxGeometry x="30" width="150" height="30" as="geometry" />
        </mxCell>
        <mxCell id="UIICKeLBpr-dkJn-d2Y9-16" value="" style="shape=partialRectangle;collapsible=0;dropTarget=0;pointerEvents=0;fillColor=none;top=0;left=0;bottom=0;right=0;points=[[0,0.5],[1,0.5]];portConstraint=eastwest;" parent="UIICKeLBpr-dkJn-d2Y9-12" vertex="1">
          <mxGeometry y="60" width="180" height="30" as="geometry" />
        </mxCell>
        <mxCell id="UIICKeLBpr-dkJn-d2Y9-17" value="" style="shape=partialRectangle;connectable=0;fillColor=none;top=0;left=0;bottom=0;right=0;editable=1;overflow=hidden;" parent="UIICKeLBpr-dkJn-d2Y9-16" vertex="1">
          <mxGeometry width="30" height="30" as="geometry" />
        </mxCell>
        <mxCell id="UIICKeLBpr-dkJn-d2Y9-18" value="NurseId" style="shape=partialRectangle;connectable=0;fillColor=none;top=0;left=0;bottom=0;right=0;align=left;spacingLeft=6;overflow=hidden;" parent="UIICKeLBpr-dkJn-d2Y9-16" vertex="1">
          <mxGeometry x="30" width="150" height="30" as="geometry" />
        </mxCell>
        <mxCell id="UIICKeLBpr-dkJn-d2Y9-19" value="" style="shape=partialRectangle;collapsible=0;dropTarget=0;pointerEvents=0;fillColor=none;top=0;left=0;bottom=0;right=0;points=[[0,0.5],[1,0.5]];portConstraint=eastwest;" parent="UIICKeLBpr-dkJn-d2Y9-12" vertex="1">
          <mxGeometry y="90" width="180" height="30" as="geometry" />
        </mxCell>
        <mxCell id="UIICKeLBpr-dkJn-d2Y9-20" value="" style="shape=partialRectangle;connectable=0;fillColor=none;top=0;left=0;bottom=0;right=0;editable=1;overflow=hidden;" parent="UIICKeLBpr-dkJn-d2Y9-19" vertex="1">
          <mxGeometry width="30" height="30" as="geometry" />
        </mxCell>
        <mxCell id="UIICKeLBpr-dkJn-d2Y9-21" value="NurseName" style="shape=partialRectangle;connectable=0;fillColor=none;top=0;left=0;bottom=0;right=0;align=left;spacingLeft=6;overflow=hidden;" parent="UIICKeLBpr-dkJn-d2Y9-19" vertex="1">
          <mxGeometry x="30" width="150" height="30" as="geometry" />
        </mxCell>
        <mxCell id="UIICKeLBpr-dkJn-d2Y9-25" value="Ingredient_Dimension" style="shape=table;startSize=30;container=1;collapsible=1;childLayout=tableLayout;fixedRows=1;rowLines=0;fontStyle=1;align=center;resizeLast=1;" parent="1" vertex="1">
          <mxGeometry x="40" y="320" width="180" height="130" as="geometry" />
        </mxCell>
        <mxCell id="UIICKeLBpr-dkJn-d2Y9-26" value="" style="shape=partialRectangle;collapsible=0;dropTarget=0;pointerEvents=0;fillColor=none;top=0;left=0;bottom=1;right=0;points=[[0,0.5],[1,0.5]];portConstraint=eastwest;" parent="UIICKeLBpr-dkJn-d2Y9-25" vertex="1">
          <mxGeometry y="30" width="180" height="30" as="geometry" />
        </mxCell>
        <mxCell id="UIICKeLBpr-dkJn-d2Y9-27" value="PK" style="shape=partialRectangle;connectable=0;fillColor=none;top=0;left=0;bottom=0;right=0;fontStyle=1;overflow=hidden;" parent="UIICKeLBpr-dkJn-d2Y9-26" vertex="1">
          <mxGeometry width="30" height="30" as="geometry" />
        </mxCell>
        <mxCell id="UIICKeLBpr-dkJn-d2Y9-28" value="IngredientKey" style="shape=partialRectangle;connectable=0;fillColor=none;top=0;left=0;bottom=0;right=0;align=left;spacingLeft=6;fontStyle=5;overflow=hidden;" parent="UIICKeLBpr-dkJn-d2Y9-26" vertex="1">
          <mxGeometry x="30" width="150" height="30" as="geometry" />
        </mxCell>
        <mxCell id="UIICKeLBpr-dkJn-d2Y9-29" value="" style="shape=partialRectangle;collapsible=0;dropTarget=0;pointerEvents=0;fillColor=none;top=0;left=0;bottom=0;right=0;points=[[0,0.5],[1,0.5]];portConstraint=eastwest;" parent="UIICKeLBpr-dkJn-d2Y9-25" vertex="1">
          <mxGeometry y="60" width="180" height="30" as="geometry" />
        </mxCell>
        <mxCell id="UIICKeLBpr-dkJn-d2Y9-30" value="" style="shape=partialRectangle;connectable=0;fillColor=none;top=0;left=0;bottom=0;right=0;editable=1;overflow=hidden;" parent="UIICKeLBpr-dkJn-d2Y9-29" vertex="1">
          <mxGeometry width="30" height="30" as="geometry" />
        </mxCell>
        <mxCell id="UIICKeLBpr-dkJn-d2Y9-31" value="IngredientId" style="shape=partialRectangle;connectable=0;fillColor=none;top=0;left=0;bottom=0;right=0;align=left;spacingLeft=6;overflow=hidden;" parent="UIICKeLBpr-dkJn-d2Y9-29" vertex="1">
          <mxGeometry x="30" width="150" height="30" as="geometry" />
        </mxCell>
        <mxCell id="UIICKeLBpr-dkJn-d2Y9-32" value="" style="shape=partialRectangle;collapsible=0;dropTarget=0;pointerEvents=0;fillColor=none;top=0;left=0;bottom=0;right=0;points=[[0,0.5],[1,0.5]];portConstraint=eastwest;" parent="UIICKeLBpr-dkJn-d2Y9-25" vertex="1">
          <mxGeometry y="90" width="180" height="30" as="geometry" />
        </mxCell>
        <mxCell id="UIICKeLBpr-dkJn-d2Y9-33" value="" style="shape=partialRectangle;connectable=0;fillColor=none;top=0;left=0;bottom=0;right=0;editable=1;overflow=hidden;" parent="UIICKeLBpr-dkJn-d2Y9-32" vertex="1">
          <mxGeometry width="30" height="30" as="geometry" />
        </mxCell>
        <mxCell id="UIICKeLBpr-dkJn-d2Y9-34" value="IngredientName" style="shape=partialRectangle;connectable=0;fillColor=none;top=0;left=0;bottom=0;right=0;align=left;spacingLeft=6;overflow=hidden;" parent="UIICKeLBpr-dkJn-d2Y9-32" vertex="1">
          <mxGeometry x="30" width="150" height="30" as="geometry" />
        </mxCell>
      </root>
    </mxGraphModel>
  </diagram>
  <diagram id="8LlnUL3ZqudLwrEw5d_2" name="academicRecordDimensionalModellingStarSchema">
    <mxGraphModel dx="1632" dy="346" grid="1" gridSize="10" guides="1" tooltips="1" connect="1" arrows="1" fold="1" page="1" pageScale="1" pageWidth="850" pageHeight="1100" math="0" shadow="0">
      <root>
        <mxCell id="-iymSPtdQV9nrMfEqR-S-0" />
        <mxCell id="-iymSPtdQV9nrMfEqR-S-1" parent="-iymSPtdQV9nrMfEqR-S-0" />
        <mxCell id="-iymSPtdQV9nrMfEqR-S-2" value="Course Section" style="shape=table;startSize=30;container=1;collapsible=1;childLayout=tableLayout;fixedRows=1;rowLines=0;fontStyle=1;align=center;resizeLast=1;" vertex="1" parent="-iymSPtdQV9nrMfEqR-S-1">
          <mxGeometry x="-800" y="60" width="180" height="280" as="geometry" />
        </mxCell>
        <mxCell id="-iymSPtdQV9nrMfEqR-S-3" value="" style="shape=partialRectangle;collapsible=0;dropTarget=0;pointerEvents=0;fillColor=none;top=0;left=0;bottom=1;right=0;points=[[0,0.5],[1,0.5]];portConstraint=eastwest;" vertex="1" parent="-iymSPtdQV9nrMfEqR-S-2">
          <mxGeometry y="30" width="180" height="30" as="geometry" />
        </mxCell>
        <mxCell id="-iymSPtdQV9nrMfEqR-S-4" value="PK" style="shape=partialRectangle;connectable=0;fillColor=none;top=0;left=0;bottom=0;right=0;fontStyle=1;overflow=hidden;" vertex="1" parent="-iymSPtdQV9nrMfEqR-S-3">
          <mxGeometry width="30" height="30" as="geometry" />
        </mxCell>
        <mxCell id="-iymSPtdQV9nrMfEqR-S-5" value="CourseSecKey" style="shape=partialRectangle;connectable=0;fillColor=none;top=0;left=0;bottom=0;right=0;align=left;spacingLeft=6;fontStyle=5;overflow=hidden;" vertex="1" parent="-iymSPtdQV9nrMfEqR-S-3">
          <mxGeometry x="30" width="150" height="30" as="geometry" />
        </mxCell>
        <mxCell id="-iymSPtdQV9nrMfEqR-S-6" value="" style="shape=partialRectangle;collapsible=0;dropTarget=0;pointerEvents=0;fillColor=none;top=0;left=0;bottom=0;right=0;points=[[0,0.5],[1,0.5]];portConstraint=eastwest;" vertex="1" parent="-iymSPtdQV9nrMfEqR-S-2">
          <mxGeometry y="60" width="180" height="30" as="geometry" />
        </mxCell>
        <mxCell id="-iymSPtdQV9nrMfEqR-S-7" value="" style="shape=partialRectangle;connectable=0;fillColor=none;top=0;left=0;bottom=0;right=0;editable=1;overflow=hidden;" vertex="1" parent="-iymSPtdQV9nrMfEqR-S-6">
          <mxGeometry width="30" height="30" as="geometry" />
        </mxCell>
        <mxCell id="-iymSPtdQV9nrMfEqR-S-8" value="CourseSecId" style="shape=partialRectangle;connectable=0;fillColor=none;top=0;left=0;bottom=0;right=0;align=left;spacingLeft=6;overflow=hidden;" vertex="1" parent="-iymSPtdQV9nrMfEqR-S-6">
          <mxGeometry x="30" width="150" height="30" as="geometry" />
        </mxCell>
        <mxCell id="-iymSPtdQV9nrMfEqR-S-9" value="" style="shape=partialRectangle;collapsible=0;dropTarget=0;pointerEvents=0;fillColor=none;top=0;left=0;bottom=0;right=0;points=[[0,0.5],[1,0.5]];portConstraint=eastwest;" vertex="1" parent="-iymSPtdQV9nrMfEqR-S-2">
          <mxGeometry y="90" width="180" height="30" as="geometry" />
        </mxCell>
        <mxCell id="-iymSPtdQV9nrMfEqR-S-10" value="" style="shape=partialRectangle;connectable=0;fillColor=none;top=0;left=0;bottom=0;right=0;editable=1;overflow=hidden;" vertex="1" parent="-iymSPtdQV9nrMfEqR-S-9">
          <mxGeometry width="30" height="30" as="geometry" />
        </mxCell>
        <mxCell id="-iymSPtdQV9nrMfEqR-S-11" value="CourseId" style="shape=partialRectangle;connectable=0;fillColor=none;top=0;left=0;bottom=0;right=0;align=left;spacingLeft=6;overflow=hidden;" vertex="1" parent="-iymSPtdQV9nrMfEqR-S-9">
          <mxGeometry x="30" width="150" height="30" as="geometry" />
        </mxCell>
        <mxCell id="-iymSPtdQV9nrMfEqR-S-15" value="" style="shape=partialRectangle;collapsible=0;dropTarget=0;pointerEvents=0;fillColor=none;top=0;left=0;bottom=0;right=0;points=[[0,0.5],[1,0.5]];portConstraint=eastwest;" vertex="1" parent="-iymSPtdQV9nrMfEqR-S-2">
          <mxGeometry y="120" width="180" height="30" as="geometry" />
        </mxCell>
        <mxCell id="-iymSPtdQV9nrMfEqR-S-16" value="" style="shape=partialRectangle;connectable=0;fillColor=none;top=0;left=0;bottom=0;right=0;editable=1;overflow=hidden;" vertex="1" parent="-iymSPtdQV9nrMfEqR-S-15">
          <mxGeometry width="30" height="30" as="geometry" />
        </mxCell>
        <mxCell id="-iymSPtdQV9nrMfEqR-S-17" value="SectionNumber" style="shape=partialRectangle;connectable=0;fillColor=none;top=0;left=0;bottom=0;right=0;align=left;spacingLeft=6;overflow=hidden;" vertex="1" parent="-iymSPtdQV9nrMfEqR-S-15">
          <mxGeometry x="30" width="150" height="30" as="geometry" />
        </mxCell>
        <mxCell id="-iymSPtdQV9nrMfEqR-S-12" value="" style="shape=partialRectangle;collapsible=0;dropTarget=0;pointerEvents=0;fillColor=none;top=0;left=0;bottom=0;right=0;points=[[0,0.5],[1,0.5]];portConstraint=eastwest;" vertex="1" parent="-iymSPtdQV9nrMfEqR-S-2">
          <mxGeometry y="150" width="180" height="30" as="geometry" />
        </mxCell>
        <mxCell id="-iymSPtdQV9nrMfEqR-S-13" value="" style="shape=partialRectangle;connectable=0;fillColor=none;top=0;left=0;bottom=0;right=0;editable=1;overflow=hidden;" vertex="1" parent="-iymSPtdQV9nrMfEqR-S-12">
          <mxGeometry width="30" height="30" as="geometry" />
        </mxCell>
        <mxCell id="-iymSPtdQV9nrMfEqR-S-14" value="CourseName" style="shape=partialRectangle;connectable=0;fillColor=none;top=0;left=0;bottom=0;right=0;align=left;spacingLeft=6;overflow=hidden;" vertex="1" parent="-iymSPtdQV9nrMfEqR-S-12">
          <mxGeometry x="30" width="150" height="30" as="geometry" />
        </mxCell>
        <mxCell id="-iymSPtdQV9nrMfEqR-S-18" value="" style="shape=partialRectangle;collapsible=0;dropTarget=0;pointerEvents=0;fillColor=none;top=0;left=0;bottom=0;right=0;points=[[0,0.5],[1,0.5]];portConstraint=eastwest;" vertex="1" parent="-iymSPtdQV9nrMfEqR-S-2">
          <mxGeometry y="180" width="180" height="30" as="geometry" />
        </mxCell>
        <mxCell id="-iymSPtdQV9nrMfEqR-S-19" value="" style="shape=partialRectangle;connectable=0;fillColor=none;top=0;left=0;bottom=0;right=0;editable=1;overflow=hidden;" vertex="1" parent="-iymSPtdQV9nrMfEqR-S-18">
          <mxGeometry width="30" height="30" as="geometry" />
        </mxCell>
        <mxCell id="-iymSPtdQV9nrMfEqR-S-20" value="Units" style="shape=partialRectangle;connectable=0;fillColor=none;top=0;left=0;bottom=0;right=0;align=left;spacingLeft=6;overflow=hidden;" vertex="1" parent="-iymSPtdQV9nrMfEqR-S-18">
          <mxGeometry x="30" width="150" height="30" as="geometry" />
        </mxCell>
        <mxCell id="-iymSPtdQV9nrMfEqR-S-21" value="" style="shape=partialRectangle;collapsible=0;dropTarget=0;pointerEvents=0;fillColor=none;top=0;left=0;bottom=0;right=0;points=[[0,0.5],[1,0.5]];portConstraint=eastwest;" vertex="1" parent="-iymSPtdQV9nrMfEqR-S-2">
          <mxGeometry y="210" width="180" height="30" as="geometry" />
        </mxCell>
        <mxCell id="-iymSPtdQV9nrMfEqR-S-22" value="" style="shape=partialRectangle;connectable=0;fillColor=none;top=0;left=0;bottom=0;right=0;editable=1;overflow=hidden;" vertex="1" parent="-iymSPtdQV9nrMfEqR-S-21">
          <mxGeometry width="30" height="30" as="geometry" />
        </mxCell>
        <mxCell id="-iymSPtdQV9nrMfEqR-S-23" value="RoomId" style="shape=partialRectangle;connectable=0;fillColor=none;top=0;left=0;bottom=0;right=0;align=left;spacingLeft=6;overflow=hidden;" vertex="1" parent="-iymSPtdQV9nrMfEqR-S-21">
          <mxGeometry x="30" width="150" height="30" as="geometry" />
        </mxCell>
        <mxCell id="-iymSPtdQV9nrMfEqR-S-24" value="" style="shape=partialRectangle;collapsible=0;dropTarget=0;pointerEvents=0;fillColor=none;top=0;left=0;bottom=0;right=0;points=[[0,0.5],[1,0.5]];portConstraint=eastwest;" vertex="1" parent="-iymSPtdQV9nrMfEqR-S-2">
          <mxGeometry y="240" width="180" height="30" as="geometry" />
        </mxCell>
        <mxCell id="-iymSPtdQV9nrMfEqR-S-25" value="" style="shape=partialRectangle;connectable=0;fillColor=none;top=0;left=0;bottom=0;right=0;editable=1;overflow=hidden;" vertex="1" parent="-iymSPtdQV9nrMfEqR-S-24">
          <mxGeometry width="30" height="30" as="geometry" />
        </mxCell>
        <mxCell id="-iymSPtdQV9nrMfEqR-S-26" value="RoomCapacity" style="shape=partialRectangle;connectable=0;fillColor=none;top=0;left=0;bottom=0;right=0;align=left;spacingLeft=6;overflow=hidden;" vertex="1" parent="-iymSPtdQV9nrMfEqR-S-24">
          <mxGeometry x="30" width="150" height="30" as="geometry" />
        </mxCell>
        <mxCell id="-iymSPtdQV9nrMfEqR-S-27" value="Student" style="shape=table;startSize=30;container=1;collapsible=1;childLayout=tableLayout;fixedRows=1;rowLines=0;fontStyle=1;align=center;resizeLast=1;" vertex="1" parent="-iymSPtdQV9nrMfEqR-S-1">
          <mxGeometry x="-250" y="60" width="180" height="160" as="geometry" />
        </mxCell>
        <mxCell id="-iymSPtdQV9nrMfEqR-S-28" value="" style="shape=partialRectangle;collapsible=0;dropTarget=0;pointerEvents=0;fillColor=none;top=0;left=0;bottom=1;right=0;points=[[0,0.5],[1,0.5]];portConstraint=eastwest;" vertex="1" parent="-iymSPtdQV9nrMfEqR-S-27">
          <mxGeometry y="30" width="180" height="30" as="geometry" />
        </mxCell>
        <mxCell id="-iymSPtdQV9nrMfEqR-S-29" value="PK" style="shape=partialRectangle;connectable=0;fillColor=none;top=0;left=0;bottom=0;right=0;fontStyle=1;overflow=hidden;" vertex="1" parent="-iymSPtdQV9nrMfEqR-S-28">
          <mxGeometry width="30" height="30" as="geometry" />
        </mxCell>
        <mxCell id="-iymSPtdQV9nrMfEqR-S-30" value="StudentKey" style="shape=partialRectangle;connectable=0;fillColor=none;top=0;left=0;bottom=0;right=0;align=left;spacingLeft=6;fontStyle=5;overflow=hidden;" vertex="1" parent="-iymSPtdQV9nrMfEqR-S-28">
          <mxGeometry x="30" width="150" height="30" as="geometry" />
        </mxCell>
        <mxCell id="-iymSPtdQV9nrMfEqR-S-31" value="" style="shape=partialRectangle;collapsible=0;dropTarget=0;pointerEvents=0;fillColor=none;top=0;left=0;bottom=0;right=0;points=[[0,0.5],[1,0.5]];portConstraint=eastwest;" vertex="1" parent="-iymSPtdQV9nrMfEqR-S-27">
          <mxGeometry y="60" width="180" height="30" as="geometry" />
        </mxCell>
        <mxCell id="-iymSPtdQV9nrMfEqR-S-32" value="" style="shape=partialRectangle;connectable=0;fillColor=none;top=0;left=0;bottom=0;right=0;editable=1;overflow=hidden;" vertex="1" parent="-iymSPtdQV9nrMfEqR-S-31">
          <mxGeometry width="30" height="30" as="geometry" />
        </mxCell>
        <mxCell id="-iymSPtdQV9nrMfEqR-S-33" value="StudentId" style="shape=partialRectangle;connectable=0;fillColor=none;top=0;left=0;bottom=0;right=0;align=left;spacingLeft=6;overflow=hidden;" vertex="1" parent="-iymSPtdQV9nrMfEqR-S-31">
          <mxGeometry x="30" width="150" height="30" as="geometry" />
        </mxCell>
        <mxCell id="-iymSPtdQV9nrMfEqR-S-34" value="" style="shape=partialRectangle;collapsible=0;dropTarget=0;pointerEvents=0;fillColor=none;top=0;left=0;bottom=0;right=0;points=[[0,0.5],[1,0.5]];portConstraint=eastwest;" vertex="1" parent="-iymSPtdQV9nrMfEqR-S-27">
          <mxGeometry y="90" width="180" height="30" as="geometry" />
        </mxCell>
        <mxCell id="-iymSPtdQV9nrMfEqR-S-35" value="" style="shape=partialRectangle;connectable=0;fillColor=none;top=0;left=0;bottom=0;right=0;editable=1;overflow=hidden;" vertex="1" parent="-iymSPtdQV9nrMfEqR-S-34">
          <mxGeometry width="30" height="30" as="geometry" />
        </mxCell>
        <mxCell id="-iymSPtdQV9nrMfEqR-S-36" value="StudentName" style="shape=partialRectangle;connectable=0;fillColor=none;top=0;left=0;bottom=0;right=0;align=left;spacingLeft=6;overflow=hidden;" vertex="1" parent="-iymSPtdQV9nrMfEqR-S-34">
          <mxGeometry x="30" width="150" height="30" as="geometry" />
        </mxCell>
        <mxCell id="-iymSPtdQV9nrMfEqR-S-37" value="" style="shape=partialRectangle;collapsible=0;dropTarget=0;pointerEvents=0;fillColor=none;top=0;left=0;bottom=0;right=0;points=[[0,0.5],[1,0.5]];portConstraint=eastwest;" vertex="1" parent="-iymSPtdQV9nrMfEqR-S-27">
          <mxGeometry y="120" width="180" height="30" as="geometry" />
        </mxCell>
        <mxCell id="-iymSPtdQV9nrMfEqR-S-38" value="" style="shape=partialRectangle;connectable=0;fillColor=none;top=0;left=0;bottom=0;right=0;editable=1;overflow=hidden;" vertex="1" parent="-iymSPtdQV9nrMfEqR-S-37">
          <mxGeometry width="30" height="30" as="geometry" />
        </mxCell>
        <mxCell id="-iymSPtdQV9nrMfEqR-S-39" value="Major" style="shape=partialRectangle;connectable=0;fillColor=none;top=0;left=0;bottom=0;right=0;align=left;spacingLeft=6;overflow=hidden;" vertex="1" parent="-iymSPtdQV9nrMfEqR-S-37">
          <mxGeometry x="30" width="150" height="30" as="geometry" />
        </mxCell>
        <mxCell id="-iymSPtdQV9nrMfEqR-S-40" value="Period" style="shape=table;startSize=30;container=1;collapsible=1;childLayout=tableLayout;fixedRows=1;rowLines=0;fontStyle=1;align=center;resizeLast=1;" vertex="1" parent="-iymSPtdQV9nrMfEqR-S-1">
          <mxGeometry x="-240" y="450" width="180" height="170" as="geometry" />
        </mxCell>
        <mxCell id="-iymSPtdQV9nrMfEqR-S-41" value="" style="shape=partialRectangle;collapsible=0;dropTarget=0;pointerEvents=0;fillColor=none;top=0;left=0;bottom=1;right=0;points=[[0,0.5],[1,0.5]];portConstraint=eastwest;" vertex="1" parent="-iymSPtdQV9nrMfEqR-S-40">
          <mxGeometry y="30" width="180" height="30" as="geometry" />
        </mxCell>
        <mxCell id="-iymSPtdQV9nrMfEqR-S-42" value="PK" style="shape=partialRectangle;connectable=0;fillColor=none;top=0;left=0;bottom=0;right=0;fontStyle=1;overflow=hidden;" vertex="1" parent="-iymSPtdQV9nrMfEqR-S-41">
          <mxGeometry width="30" height="30" as="geometry" />
        </mxCell>
        <mxCell id="-iymSPtdQV9nrMfEqR-S-43" value="PeriodKey" style="shape=partialRectangle;connectable=0;fillColor=none;top=0;left=0;bottom=0;right=0;align=left;spacingLeft=6;fontStyle=5;overflow=hidden;" vertex="1" parent="-iymSPtdQV9nrMfEqR-S-41">
          <mxGeometry x="30" width="150" height="30" as="geometry" />
        </mxCell>
        <mxCell id="-iymSPtdQV9nrMfEqR-S-44" value="" style="shape=partialRectangle;collapsible=0;dropTarget=0;pointerEvents=0;fillColor=none;top=0;left=0;bottom=0;right=0;points=[[0,0.5],[1,0.5]];portConstraint=eastwest;" vertex="1" parent="-iymSPtdQV9nrMfEqR-S-40">
          <mxGeometry y="60" width="180" height="30" as="geometry" />
        </mxCell>
        <mxCell id="-iymSPtdQV9nrMfEqR-S-45" value="" style="shape=partialRectangle;connectable=0;fillColor=none;top=0;left=0;bottom=0;right=0;editable=1;overflow=hidden;" vertex="1" parent="-iymSPtdQV9nrMfEqR-S-44">
          <mxGeometry width="30" height="30" as="geometry" />
        </mxCell>
        <mxCell id="-iymSPtdQV9nrMfEqR-S-46" value="PeriodId" style="shape=partialRectangle;connectable=0;fillColor=none;top=0;left=0;bottom=0;right=0;align=left;spacingLeft=6;overflow=hidden;" vertex="1" parent="-iymSPtdQV9nrMfEqR-S-44">
          <mxGeometry x="30" width="150" height="30" as="geometry" />
        </mxCell>
        <mxCell id="-iymSPtdQV9nrMfEqR-S-47" value="" style="shape=partialRectangle;collapsible=0;dropTarget=0;pointerEvents=0;fillColor=none;top=0;left=0;bottom=0;right=0;points=[[0,0.5],[1,0.5]];portConstraint=eastwest;" vertex="1" parent="-iymSPtdQV9nrMfEqR-S-40">
          <mxGeometry y="90" width="180" height="40" as="geometry" />
        </mxCell>
        <mxCell id="-iymSPtdQV9nrMfEqR-S-48" value="" style="shape=partialRectangle;connectable=0;fillColor=none;top=0;left=0;bottom=0;right=0;editable=1;overflow=hidden;" vertex="1" parent="-iymSPtdQV9nrMfEqR-S-47">
          <mxGeometry width="30" height="40" as="geometry" />
        </mxCell>
        <mxCell id="-iymSPtdQV9nrMfEqR-S-49" value="SemesterId" style="shape=partialRectangle;connectable=0;fillColor=none;top=0;left=0;bottom=0;right=0;align=left;spacingLeft=6;overflow=hidden;" vertex="1" parent="-iymSPtdQV9nrMfEqR-S-47">
          <mxGeometry x="30" width="150" height="40" as="geometry" />
        </mxCell>
        <mxCell id="-iymSPtdQV9nrMfEqR-S-50" value="" style="shape=partialRectangle;collapsible=0;dropTarget=0;pointerEvents=0;fillColor=none;top=0;left=0;bottom=0;right=0;points=[[0,0.5],[1,0.5]];portConstraint=eastwest;" vertex="1" parent="-iymSPtdQV9nrMfEqR-S-40">
          <mxGeometry y="130" width="180" height="30" as="geometry" />
        </mxCell>
        <mxCell id="-iymSPtdQV9nrMfEqR-S-51" value="" style="shape=partialRectangle;connectable=0;fillColor=none;top=0;left=0;bottom=0;right=0;editable=1;overflow=hidden;" vertex="1" parent="-iymSPtdQV9nrMfEqR-S-50">
          <mxGeometry width="30" height="30" as="geometry" />
        </mxCell>
        <mxCell id="-iymSPtdQV9nrMfEqR-S-52" value="Year" style="shape=partialRectangle;connectable=0;fillColor=none;top=0;left=0;bottom=0;right=0;align=left;spacingLeft=6;overflow=hidden;" vertex="1" parent="-iymSPtdQV9nrMfEqR-S-50">
          <mxGeometry x="30" width="150" height="30" as="geometry" />
        </mxCell>
        <mxCell id="-iymSPtdQV9nrMfEqR-S-53" value="Professor" style="shape=table;startSize=30;container=1;collapsible=1;childLayout=tableLayout;fixedRows=1;rowLines=0;fontStyle=1;align=center;resizeLast=1;" vertex="1" parent="-iymSPtdQV9nrMfEqR-S-1">
          <mxGeometry x="-830" y="440" width="180" height="220" as="geometry" />
        </mxCell>
        <mxCell id="-iymSPtdQV9nrMfEqR-S-54" value="" style="shape=partialRectangle;collapsible=0;dropTarget=0;pointerEvents=0;fillColor=none;top=0;left=0;bottom=1;right=0;points=[[0,0.5],[1,0.5]];portConstraint=eastwest;" vertex="1" parent="-iymSPtdQV9nrMfEqR-S-53">
          <mxGeometry y="30" width="180" height="30" as="geometry" />
        </mxCell>
        <mxCell id="-iymSPtdQV9nrMfEqR-S-55" value="PK" style="shape=partialRectangle;connectable=0;fillColor=none;top=0;left=0;bottom=0;right=0;fontStyle=1;overflow=hidden;" vertex="1" parent="-iymSPtdQV9nrMfEqR-S-54">
          <mxGeometry width="30" height="30" as="geometry" />
        </mxCell>
        <mxCell id="-iymSPtdQV9nrMfEqR-S-56" value="ProfessorKey" style="shape=partialRectangle;connectable=0;fillColor=none;top=0;left=0;bottom=0;right=0;align=left;spacingLeft=6;fontStyle=5;overflow=hidden;" vertex="1" parent="-iymSPtdQV9nrMfEqR-S-54">
          <mxGeometry x="30" width="150" height="30" as="geometry" />
        </mxCell>
        <mxCell id="-iymSPtdQV9nrMfEqR-S-57" value="" style="shape=partialRectangle;collapsible=0;dropTarget=0;pointerEvents=0;fillColor=none;top=0;left=0;bottom=0;right=0;points=[[0,0.5],[1,0.5]];portConstraint=eastwest;" vertex="1" parent="-iymSPtdQV9nrMfEqR-S-53">
          <mxGeometry y="60" width="180" height="30" as="geometry" />
        </mxCell>
        <mxCell id="-iymSPtdQV9nrMfEqR-S-58" value="" style="shape=partialRectangle;connectable=0;fillColor=none;top=0;left=0;bottom=0;right=0;editable=1;overflow=hidden;" vertex="1" parent="-iymSPtdQV9nrMfEqR-S-57">
          <mxGeometry width="30" height="30" as="geometry" />
        </mxCell>
        <mxCell id="-iymSPtdQV9nrMfEqR-S-59" value="ProfessorId" style="shape=partialRectangle;connectable=0;fillColor=none;top=0;left=0;bottom=0;right=0;align=left;spacingLeft=6;overflow=hidden;" vertex="1" parent="-iymSPtdQV9nrMfEqR-S-57">
          <mxGeometry x="30" width="150" height="30" as="geometry" />
        </mxCell>
        <mxCell id="-iymSPtdQV9nrMfEqR-S-60" value="" style="shape=partialRectangle;collapsible=0;dropTarget=0;pointerEvents=0;fillColor=none;top=0;left=0;bottom=0;right=0;points=[[0,0.5],[1,0.5]];portConstraint=eastwest;" vertex="1" parent="-iymSPtdQV9nrMfEqR-S-53">
          <mxGeometry y="90" width="180" height="30" as="geometry" />
        </mxCell>
        <mxCell id="-iymSPtdQV9nrMfEqR-S-61" value="" style="shape=partialRectangle;connectable=0;fillColor=none;top=0;left=0;bottom=0;right=0;editable=1;overflow=hidden;" vertex="1" parent="-iymSPtdQV9nrMfEqR-S-60">
          <mxGeometry width="30" height="30" as="geometry" />
        </mxCell>
        <mxCell id="-iymSPtdQV9nrMfEqR-S-62" value="ProfName" style="shape=partialRectangle;connectable=0;fillColor=none;top=0;left=0;bottom=0;right=0;align=left;spacingLeft=6;overflow=hidden;" vertex="1" parent="-iymSPtdQV9nrMfEqR-S-60">
          <mxGeometry x="30" width="150" height="30" as="geometry" />
        </mxCell>
        <mxCell id="-iymSPtdQV9nrMfEqR-S-63" value="" style="shape=partialRectangle;collapsible=0;dropTarget=0;pointerEvents=0;fillColor=none;top=0;left=0;bottom=0;right=0;points=[[0,0.5],[1,0.5]];portConstraint=eastwest;" vertex="1" parent="-iymSPtdQV9nrMfEqR-S-53">
          <mxGeometry y="120" width="180" height="30" as="geometry" />
        </mxCell>
        <mxCell id="-iymSPtdQV9nrMfEqR-S-64" value="" style="shape=partialRectangle;connectable=0;fillColor=none;top=0;left=0;bottom=0;right=0;editable=1;overflow=hidden;" vertex="1" parent="-iymSPtdQV9nrMfEqR-S-63">
          <mxGeometry width="30" height="30" as="geometry" />
        </mxCell>
        <mxCell id="-iymSPtdQV9nrMfEqR-S-65" value="Title" style="shape=partialRectangle;connectable=0;fillColor=none;top=0;left=0;bottom=0;right=0;align=left;spacingLeft=6;overflow=hidden;" vertex="1" parent="-iymSPtdQV9nrMfEqR-S-63">
          <mxGeometry x="30" width="150" height="30" as="geometry" />
        </mxCell>
        <mxCell id="-iymSPtdQV9nrMfEqR-S-66" value="" style="shape=partialRectangle;collapsible=0;dropTarget=0;pointerEvents=0;fillColor=none;top=0;left=0;bottom=0;right=0;points=[[0,0.5],[1,0.5]];portConstraint=eastwest;" vertex="1" parent="-iymSPtdQV9nrMfEqR-S-53">
          <mxGeometry y="150" width="180" height="30" as="geometry" />
        </mxCell>
        <mxCell id="-iymSPtdQV9nrMfEqR-S-67" value="" style="shape=partialRectangle;connectable=0;fillColor=none;top=0;left=0;bottom=0;right=0;editable=1;overflow=hidden;" vertex="1" parent="-iymSPtdQV9nrMfEqR-S-66">
          <mxGeometry width="30" height="30" as="geometry" />
        </mxCell>
        <mxCell id="-iymSPtdQV9nrMfEqR-S-68" value="DeptId" style="shape=partialRectangle;connectable=0;fillColor=none;top=0;left=0;bottom=0;right=0;align=left;spacingLeft=6;overflow=hidden;" vertex="1" parent="-iymSPtdQV9nrMfEqR-S-66">
          <mxGeometry x="30" width="150" height="30" as="geometry" />
        </mxCell>
        <mxCell id="-iymSPtdQV9nrMfEqR-S-69" value="" style="shape=partialRectangle;collapsible=0;dropTarget=0;pointerEvents=0;fillColor=none;top=0;left=0;bottom=0;right=0;points=[[0,0.5],[1,0.5]];portConstraint=eastwest;" vertex="1" parent="-iymSPtdQV9nrMfEqR-S-53">
          <mxGeometry y="180" width="180" height="30" as="geometry" />
        </mxCell>
        <mxCell id="-iymSPtdQV9nrMfEqR-S-70" value="" style="shape=partialRectangle;connectable=0;fillColor=none;top=0;left=0;bottom=0;right=0;editable=1;overflow=hidden;" vertex="1" parent="-iymSPtdQV9nrMfEqR-S-69">
          <mxGeometry width="30" height="30" as="geometry" />
        </mxCell>
        <mxCell id="-iymSPtdQV9nrMfEqR-S-71" value="DeptName" style="shape=partialRectangle;connectable=0;fillColor=none;top=0;left=0;bottom=0;right=0;align=left;spacingLeft=6;overflow=hidden;" vertex="1" parent="-iymSPtdQV9nrMfEqR-S-69">
          <mxGeometry x="30" width="150" height="30" as="geometry" />
        </mxCell>
        <mxCell id="-iymSPtdQV9nrMfEqR-S-72" value="Course Facts" style="shape=table;startSize=30;container=1;collapsible=1;childLayout=tableLayout;fixedRows=1;rowLines=0;fontStyle=1;align=center;resizeLast=1;" vertex="1" parent="-iymSPtdQV9nrMfEqR-S-1">
          <mxGeometry x="-515" y="210" width="180" height="210" as="geometry" />
        </mxCell>
        <mxCell id="-iymSPtdQV9nrMfEqR-S-73" value="" style="shape=partialRectangle;collapsible=0;dropTarget=0;pointerEvents=0;fillColor=none;top=0;left=0;bottom=1;right=0;points=[[0,0.5],[1,0.5]];portConstraint=eastwest;" vertex="1" parent="-iymSPtdQV9nrMfEqR-S-72">
          <mxGeometry y="30" width="180" height="40" as="geometry" />
        </mxCell>
        <mxCell id="-iymSPtdQV9nrMfEqR-S-74" value="PK,FK1" style="shape=partialRectangle;connectable=0;fillColor=none;top=0;left=0;bottom=0;right=0;fontStyle=1;overflow=hidden;" vertex="1" parent="-iymSPtdQV9nrMfEqR-S-73">
          <mxGeometry width="45" height="40" as="geometry" />
        </mxCell>
        <mxCell id="-iymSPtdQV9nrMfEqR-S-75" value="CourseSecKey" style="shape=partialRectangle;connectable=0;fillColor=none;top=0;left=0;bottom=0;right=0;align=left;spacingLeft=6;fontStyle=5;overflow=hidden;" vertex="1" parent="-iymSPtdQV9nrMfEqR-S-73">
          <mxGeometry x="45" width="135" height="40" as="geometry" />
        </mxCell>
        <mxCell id="-iymSPtdQV9nrMfEqR-S-89" value="" style="shape=partialRectangle;collapsible=0;dropTarget=0;pointerEvents=0;fillColor=none;top=0;left=0;bottom=0;right=0;points=[[0,0.5],[1,0.5]];portConstraint=eastwest;" vertex="1" parent="-iymSPtdQV9nrMfEqR-S-72">
          <mxGeometry y="70" width="180" height="30" as="geometry" />
        </mxCell>
        <mxCell id="-iymSPtdQV9nrMfEqR-S-90" value="PK,FK1" style="shape=partialRectangle;connectable=0;fillColor=none;top=0;left=0;bottom=0;right=0;fontStyle=1;overflow=hidden;" vertex="1" parent="-iymSPtdQV9nrMfEqR-S-89">
          <mxGeometry width="45" height="30" as="geometry" />
        </mxCell>
        <mxCell id="-iymSPtdQV9nrMfEqR-S-91" value="ProfessorKey" style="shape=partialRectangle;connectable=0;fillColor=none;top=0;left=0;bottom=0;right=0;align=left;spacingLeft=6;fontStyle=5;overflow=hidden;" vertex="1" parent="-iymSPtdQV9nrMfEqR-S-89">
          <mxGeometry x="45" width="135" height="30" as="geometry" />
        </mxCell>
        <mxCell id="-iymSPtdQV9nrMfEqR-S-92" value="" style="shape=partialRectangle;collapsible=0;dropTarget=0;pointerEvents=0;fillColor=none;top=0;left=0;bottom=0;right=0;points=[[0,0.5],[1,0.5]];portConstraint=eastwest;" vertex="1" parent="-iymSPtdQV9nrMfEqR-S-72">
          <mxGeometry y="100" width="180" height="30" as="geometry" />
        </mxCell>
        <mxCell id="-iymSPtdQV9nrMfEqR-S-93" value="PK,FK2" style="shape=partialRectangle;connectable=0;fillColor=none;top=0;left=0;bottom=0;right=0;fontStyle=1;overflow=hidden;" vertex="1" parent="-iymSPtdQV9nrMfEqR-S-92">
          <mxGeometry width="45" height="30" as="geometry" />
        </mxCell>
        <mxCell id="-iymSPtdQV9nrMfEqR-S-94" value="StudentKey" style="shape=partialRectangle;connectable=0;fillColor=none;top=0;left=0;bottom=0;right=0;align=left;spacingLeft=6;fontStyle=5;overflow=hidden;" vertex="1" parent="-iymSPtdQV9nrMfEqR-S-92">
          <mxGeometry x="45" width="135" height="30" as="geometry" />
        </mxCell>
        <mxCell id="-iymSPtdQV9nrMfEqR-S-95" value="" style="shape=partialRectangle;collapsible=0;dropTarget=0;pointerEvents=0;fillColor=none;top=0;left=0;bottom=0;right=0;points=[[0,0.5],[1,0.5]];portConstraint=eastwest;" vertex="1" parent="-iymSPtdQV9nrMfEqR-S-72">
          <mxGeometry y="130" width="180" height="40" as="geometry" />
        </mxCell>
        <mxCell id="-iymSPtdQV9nrMfEqR-S-96" value="PK,FK3" style="shape=partialRectangle;connectable=0;fillColor=none;top=0;left=0;bottom=0;right=0;fontStyle=1;overflow=hidden;" vertex="1" parent="-iymSPtdQV9nrMfEqR-S-95">
          <mxGeometry width="45" height="40" as="geometry" />
        </mxCell>
        <mxCell id="-iymSPtdQV9nrMfEqR-S-97" value="PeriodKey" style="shape=partialRectangle;connectable=0;fillColor=none;top=0;left=0;bottom=0;right=0;align=left;spacingLeft=6;fontStyle=5;overflow=hidden;" vertex="1" parent="-iymSPtdQV9nrMfEqR-S-95">
          <mxGeometry x="45" width="135" height="40" as="geometry" />
        </mxCell>
        <mxCell id="-iymSPtdQV9nrMfEqR-S-79" value="" style="shape=partialRectangle;collapsible=0;dropTarget=0;pointerEvents=0;fillColor=none;top=0;left=0;bottom=0;right=0;points=[[0,0.5],[1,0.5]];portConstraint=eastwest;" vertex="1" parent="-iymSPtdQV9nrMfEqR-S-72">
          <mxGeometry y="170" width="180" height="30" as="geometry" />
        </mxCell>
        <mxCell id="-iymSPtdQV9nrMfEqR-S-80" value="" style="shape=partialRectangle;connectable=0;fillColor=none;top=0;left=0;bottom=0;right=0;editable=1;overflow=hidden;" vertex="1" parent="-iymSPtdQV9nrMfEqR-S-79">
          <mxGeometry width="45" height="30" as="geometry" />
        </mxCell>
        <mxCell id="-iymSPtdQV9nrMfEqR-S-81" value="CourseGrade" style="shape=partialRectangle;connectable=0;fillColor=none;top=0;left=0;bottom=0;right=0;align=left;spacingLeft=6;overflow=hidden;" vertex="1" parent="-iymSPtdQV9nrMfEqR-S-79">
          <mxGeometry x="45" width="135" height="30" as="geometry" />
        </mxCell>
        <mxCell id="-iymSPtdQV9nrMfEqR-S-102" value="" style="edgeStyle=elbowEdgeStyle;elbow=vertical;endArrow=ERmany;html=1;exitX=0.5;exitY=0;exitDx=0;exitDy=0;entryX=1;entryY=0.5;entryDx=0;entryDy=0;endFill=0;" edge="1" parent="-iymSPtdQV9nrMfEqR-S-1" source="-iymSPtdQV9nrMfEqR-S-40" target="-iymSPtdQV9nrMfEqR-S-95">
          <mxGeometry width="50" height="50" relative="1" as="geometry">
            <mxPoint x="-260" y="360" as="sourcePoint" />
            <mxPoint x="-210" y="310" as="targetPoint" />
            <Array as="points">
              <mxPoint x="-180" y="360" />
            </Array>
          </mxGeometry>
        </mxCell>
        <mxCell id="-iymSPtdQV9nrMfEqR-S-103" value="" style="edgeStyle=elbowEdgeStyle;elbow=vertical;endArrow=ERmany;html=1;exitX=0.5;exitY=1;exitDx=0;exitDy=0;entryX=1;entryY=0.5;entryDx=0;entryDy=0;endFill=0;" edge="1" parent="-iymSPtdQV9nrMfEqR-S-1" source="-iymSPtdQV9nrMfEqR-S-27">
          <mxGeometry width="50" height="50" relative="1" as="geometry">
            <mxPoint x="-150" y="420" as="sourcePoint" />
            <mxPoint x="-335" y="330" as="targetPoint" />
            <Array as="points">
              <mxPoint x="-180" y="330" />
            </Array>
          </mxGeometry>
        </mxCell>
        <mxCell id="-iymSPtdQV9nrMfEqR-S-106" value="" style="edgeStyle=elbowEdgeStyle;elbow=horizontal;endArrow=ERmany;html=1;endFill=0;" edge="1" parent="-iymSPtdQV9nrMfEqR-S-1">
          <mxGeometry width="50" height="50" relative="1" as="geometry">
            <mxPoint x="-650" y="487" as="sourcePoint" />
            <mxPoint x="-515" y="290" as="targetPoint" />
          </mxGeometry>
        </mxCell>
        <mxCell id="-iymSPtdQV9nrMfEqR-S-107" value="" style="edgeStyle=elbowEdgeStyle;elbow=horizontal;endArrow=ERmany;html=1;entryX=0;entryY=0.5;entryDx=0;entryDy=0;exitX=1;exitY=0.5;exitDx=0;exitDy=0;endFill=0;" edge="1" parent="-iymSPtdQV9nrMfEqR-S-1" source="-iymSPtdQV9nrMfEqR-S-3" target="-iymSPtdQV9nrMfEqR-S-73">
          <mxGeometry width="50" height="50" relative="1" as="geometry">
            <mxPoint x="-580" y="150" as="sourcePoint" />
            <mxPoint x="-530" y="100" as="targetPoint" />
          </mxGeometry>
        </mxCell>
        <mxCell id="-iymSPtdQV9nrMfEqR-S-108" value="Star Dimensional Schema" style="text;html=1;align=center;verticalAlign=middle;resizable=0;points=[];autosize=1;" vertex="1" parent="-iymSPtdQV9nrMfEqR-S-1">
          <mxGeometry x="-565" y="500" width="150" height="20" as="geometry" />
        </mxCell>
      </root>
    </mxGraphModel>
  </diagram>
</mxfile>
